<?xml version="1.0" encoding="UTF-8" standalone="no"?>
<svg
   width="977.14227"
   height="611.78296"
   viewBox="0 0 977.14226 611.78296"
   version="1.1"
   id="svg2"
   sodipodi:docname="logo.svg"
   inkscape:version="1.3.2 (091e20ef0f, 2023-11-25)"
   xmlns:inkscape="http://www.inkscape.org/namespaces/inkscape"
   xmlns:sodipodi="http://sodipodi.sourceforge.net/DTD/sodipodi-0.dtd"
   xmlns:xlink="http://www.w3.org/1999/xlink"
   xmlns="http://www.w3.org/2000/svg"
   xmlns:svg="http://www.w3.org/2000/svg">
  <sodipodi:namedview
     id="namedview2"
     pagecolor="#505050"
     bordercolor="#eeeeee"
     borderopacity="1"
     inkscape:showpageshadow="0"
     inkscape:pageopacity="0"
     inkscape:pagecheckerboard="0"
     inkscape:deskcolor="#505050"
     inkscape:zoom="0.21708178"
     inkscape:cx="635.70512"
     inkscape:cy="340.88535"
     inkscape:window-width="1440"
     inkscape:window-height="865"
     inkscape:window-x="0"
     inkscape:window-y="0"
     inkscape:window-maximized="1"
     inkscape:current-layer="svg2" />
  <defs
     id="defs1">
    <linearGradient
       id="swatch3"
       inkscape:swatch="solid">
      <stop
         style="stop-color:#000000;stop-opacity:1;"
         offset="0"
         id="stop3" />
    </linearGradient>
    <linearGradient
       id="swatch2"
       inkscape:swatch="solid">
      <stop
         style="stop-color:#000000;stop-opacity:1;"
         offset="0"
         id="stop2" />
    </linearGradient>
    <linearGradient
       inkscape:collect="always"
       xlink:href="#swatch2"
       id="linearGradient3"
       x1="1063.2275"
       y1="378.50961"
       x2="2194.7866"
       y2="378.50961"
       gradientUnits="userSpaceOnUse" />
  </defs>
  <path
     fill="#d00304"
     d="M 894.20554,436.16386 687.36083,242.44585 649.37301,279.04146 399.76714,45.346722 81.345653,352.82932 H 166.66908 V 578.76738 H 271.68254 V 464.60502 c -1.79,-9.74557 -4.77334,-10.54113 -4.77334,-10.54113 -17.50224,-10.34224 -29.43559,-30.43004 -29.43559,-53.50118 0,-15.71223 5.5689,-30.23114 14.91669,-40.97115 l 7.75668,18.89446 c 5.56889,13.52446 21.08224,19.88891 34.40782,13.92223 v 0 c 12.7289,-5.56888 18.89446,-20.28668 13.92223,-33.21447 l -7.3589,-19.29225 c 28.44114,3.58 50.51784,29.43559 50.51784,60.66118 0,12.13224 -3.38111,23.66781 -9.1489,33.21449 l -7.75667,18.69558 c -3.97778,9.54667 -5.96668,19.69003 -5.96668,30.03226 v 96.26234 h 59.66674 c 3.7789,-11.33669 5.96668,-23.46892 5.96668,-36.19782 0,-6.36445 -0.59667,-12.53002 -1.39222,-18.4967 l -0.39778,-2.98333 c -1.59112,-7.55779 -2.38668,-15.31447 -2.38668,-23.27003 0,-13.72335 2.38668,-26.85004 6.76224,-38.98227 0.59666,-2.38667 5.96667,-4.37555 13.32557,-5.17112 V 221.56249 l -5.96668,-29.83336 5.96668,-43.15895 h 17.10447 l 6.56333,43.15895 -4.57444,29.83336 V 453.865 c 6.56334,0.99445 11.13779,2.78445 11.93334,4.97223 v 0 c 4.37557,12.13223 6.76223,25.25892 6.76223,38.98227 0,7.95556 -0.79555,15.71224 -2.38666,23.27003 l -0.39778,2.98333 c -0.99444,5.96668 -1.39223,12.13225 -1.39223,18.4967 0,12.53001 1.9889,24.66225 5.96667,36.19782 h 81.54455 V 433.7772 426.21941 c 0,-9.1489 -7.55778,-17.30336 -16.70668,-17.30336 -4.57446,0 -8.55223,1.9889 -11.53558,4.97224 -2.38666,0.99444 -3.97778,1.79 -3.97778,1.79 h -25.6567 c -3.18223,0 -5.76778,-2.58556 -5.76778,-5.76779 v -40.97116 c 0,-3.18223 2.58555,-5.76778 5.76778,-5.76778 h 25.6567 c 0,0 4.77334,7.55778 15.31446,7.55778 10.54113,0 17.10447,-7.55778 17.10447,-7.55778 h 37.19227 c 0,0 31.82226,0 53.70007,53.10339 1.39222,3.18224 -1.98889,6.36446 -5.17112,4.97224 -11.53557,-4.97224 -32.02115,-19.49114 -39.18116,-19.49114 -9.54668,0 -10.54112,31.82226 -10.54112,31.82226 v 144.99018 h 74.78231 v -0.19889 h 33.41337 c 0.39778,-14.91668 0.19889,-29.63448 -3.7789,-43.95449 -5.96666,-21.48004 -22.07668,-37.39117 -29.43558,-58.27452 -5.76779,-16.90558 -0.59667,-36.79449 12.13223,-48.92674 14.51891,-13.72334 33.21449,-16.90556 33.21449,-16.90556 l -11.13779,40.37449 c -1.19333,3.97778 1.19333,8.15445 5.17111,9.34778 0,0 8.35334,2.38667 19.29225,5.76779 l 14.12113,-48.13117 c 13.52446,12.72891 22.0767,30.82782 22.0767,51.11451 0,2.58555 -0.19889,5.17112 -0.39778,7.75667 10.34223,3.18223 18.09891,5.37001 18.09891,5.37001 -5.96668,8.95002 -11.13779,18.2978 -15.91113,27.84448 -10.9389,22.07669 -11.73446,44.94894 -11.73446,68.61675 H 839.90879 V 437.75499 l -1.59111,-1.59113 z"
     id="path1"
     style="stroke-width:1.98889" />
  <path
     fill="#d00304"
     d="m 141.41017,611.58408 h -7.55779 V 385.64603 H 0 L 399.36936,0 648.97523,233.89362 686.96305,197.29802 977.1423,469.17946 H 873.12328 V 611.58408 H 667.8697 l -25.25892,0.19889 H 141.41017 Z m 7.55778,-15.11556 h 493.44394 l 25.25892,-0.19889 H 858.0077 V 453.865 h 80.94789 L 687.16194,217.98249 649.17412,254.77698 399.56825,20.883352 37.590043,370.53046 H 149.16684 v 225.93806 z"
     id="path2"
     style="stroke-width:1.98889" />
</svg>
